<svg xmlns="http://www.w3.org/2000/svg" data-name="Layer 1" viewBox="0 0 24 24"><path d="M23.3 4.1A3 3 0 0 0 21 3H7.2v-.4a3 3 0 0 0-3-2.6H3c-.5 0-1 .4-1 1s.5 1 1 1h1.2c.5 0 1 .4 1 .9l1.4 11.7a5 5 0 0 0 5 4.4H20c.6 0 1-.5 1-1s-.5-1-1-1h-8.4a3 3 0 0 1-2.9-2h9.5a5 5 0 0 0 4.9-4l.8-4.4a3 3 0 0 0-.6-2.5ZM11 22c0 1.1-.9 2-2 2s-2-.9-2-2 .9-2 2-2 2 .9 2 2Zm9 0c0 1.1-.9 2-2 2s-2-.9-2-2 .9-2 2-2 2 .9 2 2ZM0 6c0-.6.5-1 1-1h1.5c.6 0 1 .5 1 1s-.4 1-1 1H1a1 1 0 0 1-1-1Zm0 4c0-.6.5-1 1-1h2c.6 0 1 .5 1 1s-.5 1-1 1H1a1 1 0 0 1-1-1Zm5 4c0 .6-.5 1-1 1H1c-.6 0-1-.5-1-1s.5-1 1-1h3c.6 0 1 .5 1 1Z"/></svg>