<svg xmlns="http://www.w3.org/2000/svg" xml:space="preserve" viewBox="0 0 490.69 490.69"><path fill="white" d="M462.78 209.09c-7.55-5.57-17.06-12.53-18.21-17.07.48-8.8 3-17.36 7.33-25.02 6.66-15.28 13.53-31.1 5.9-44.27-7.65-13.16-25.01-15.3-41.72-17.07a56.82 56.82 0 0 1-24.93-5.95 56.8 56.8 0 0 1-5.94-25.02c-1.87-16.7-3.81-33.99-17.06-41.71-13.25-7.72-29.1-.96-44.38 5.78a57.28 57.28 0 0 1-25.04 7.34c-4.6-1.24-11.54-10.67-17.07-18.22C271.98 14.82 261.08.02 245.33.02s-26.64 14.8-36.27 27.86c-5.58 7.57-12.52 17.07-17.06 18.24a58.51 58.51 0 0 1-25.05-7.34c-15.36-6.76-31.19-13.5-44.3-5.9s-15.32 25-17.2 41.8a57.09 57.09 0 0 1-5.93 24.94 57 57 0 0 1-24.86 5.85c-16.72 1.88-34.02 3.82-41.72 17.07s-.94 29.08 5.8 44.37a57.09 57.09 0 0 1 7.34 25.11c-1.24 4.6-10.67 11.56-18.22 17.07C14.81 218.69 0 229.6 0 245.35s14.8 26.67 27.88 36.27c7.55 5.57 17.07 12.53 18.22 17.07-.48 8.8-3 17.36-7.34 25.02-6.65 15.28-13.52 31.1-5.88 44.27 7.63 13.16 25 15.3 41.7 17.07 8.66.06 17.19 2.1 24.94 5.95a56.8 56.8 0 0 1 5.93 25.02c1.88 16.7 3.82 33.99 17.07 41.71 13.25 7.72 28.97.77 44.27-5.89A58.58 58.58 0 0 1 192 444.6c4.61 1.24 11.54 10.67 17.07 18.22 9.62 13.05 20.52 27.86 36.27 27.86s26.64-14.8 36.26-27.86c5.6-7.57 12.53-17.07 17.07-18.24 8.8.5 17.37 3 25.05 7.34 15.27 6.65 31.1 13.48 44.24 5.9 13.14-7.57 15.32-25 17.2-41.72a57.09 57.09 0 0 1 5.93-24.94 57 57 0 0 1 24.91-5.91c16.73-1.88 34.03-3.82 41.73-17.07 7.7-13.25.75-28.97-5.89-44.26a57.08 57.08 0 0 1-7.25-25.22c1.24-4.6 10.67-11.56 18.22-17.07 13.06-9.62 27.88-20.54 27.88-36.26s-14.83-26.67-27.9-36.27z"/><g fill="#fcb300"><path d="M181.33 298.69c-3.35 0-6.52-1.58-8.53-4.27L128 234.7v53.33a10.67 10.67 0 0 1-21.33 0V202.7a10.67 10.67 0 0 1 19.2-6.4l44.8 59.73V202.7a10.67 10.67 0 0 1 21.33 0v85.33a10.67 10.67 0 0 1-10.67 10.67zm85.34 0H224c-5.9 0-10.67-4.78-10.67-10.67V202.7c0-5.9 4.78-10.67 10.67-10.67h42.67a10.67 10.67 0 0 1 0 21.34h-32v64h32a10.67 10.67 0 0 1 0 21.33z"/><path d="M266.67 256.02H224a10.67 10.67 0 0 1 0-21.33h42.67a10.67 10.67 0 0 1 0 21.33zm106.66 42.67c-4.6 0-8.68-2.94-10.13-7.3L352 257.75l-11.2 33.64a10.2 10.2 0 0 1-10.54 7.28 10.67 10.67 0 0 1-9.94-8.07l-21.33-85.33a10.67 10.67 0 0 1 20.71-5.16l12.44 49.79 9.75-29.25a11.11 11.11 0 0 1 20.24 0l9.75 29.25 12.44-49.8a10.67 10.67 0 1 1 20.72 5.17L383.7 290.6a10.67 10.67 0 0 1-9.94 8.07l-.43.02z"/></g></svg>