<svg xmlns="http://www.w3.org/2000/svg" fill="none" viewBox="0 0 2000 504"><path fill="#292828" d="M967 499c-11-1-19-5-26-13l-8-10-2-5-2-4-3-50c0-28 0-33 2-37 2-6 5-8 12-9 12-2 24 2 27 8l1 38 1 38c1 3 9 7 12 7s8-4 11-8c2-4 2-5 2-40s0-35 3-38 5-4 10-5c9-2 19 0 24 4l2 9v73c-2 16-10 28-22 36-7 4-11 5-21 6h-23Zm24-14 4-2 4-1c3 0 13-11 15-17 4-9 5-15 5-48 1-31 1-31-2-32-5-1-8 0-8 4l-1 37c-1 35-1 35-3 39-6 8-9 10-23 10-11 0-15-1-20-6-8-6-7-5-8-46v-38h-11c-2 1-2 2-2 27l1 36c2 21 11 32 29 38 5 1 17 1 20-1ZM1174 498c-21-4-40-23-45-44l-2-7-4 3c-8 7-17 9-35 10-12 0-12 0-12 10s-1 20-3 22c-3 3-12 6-18 6s-7 0-11-3l-6-6-2-56c0-53 0-53 4-57 3-4 3-4 34-4 32 0 32 0 42 4 5 3 15 14 17 18 2 5 3 5 4 1 3-5 16-16 23-19 18-8 45-8 62 1 12 7 22 18 22 25s-5 14-13 18c-10 5-17 4-28-5-9-8-17-8-25-1-6 5-9 12-9 21s3 16 11 21c4 4 5 4 10 4 6 0 8-1 16-8 6-6 6-6 15-6s10 0 14 2l7 7 3 3 1-40c0-41 0-41 2-44 3-2 3-2 40-3l40 1c8 2 12 9 11 22-2 14-3 14-30 15-21 0-21 0-22 2 0 5 2 5 22 5 18 0 19 0 21 2 3 4 4 7 4 13 0 9-2 16-5 19-3 2-4 2-23 2s-19 0-19 4c1 4 1 4 23 4 25 1 25 1 27 6 3 5 3 19 1 23-4 6-6 7-22 8a572 572 0 0 1-45 1c-10 1-22-3-24-7l-1-14-1-11-3 5c-3 7-14 17-21 21-9 5-17 7-31 7l-16-1Zm31-14 5-2c2 0 16-12 18-17 2-3 2-3-2-4-3-2-3-2-8 2l-10 7c-5 3-7 3-17 3l-14-1c-8-3-15-9-19-18-2-5-2-7-3-18 0-11 0-13 2-18 2-7 6-13 9-14l5-3c4-4 12-5 24-5 10 1 14 3 21 10 4 3 4 3 7 1l4-2c3-1 1-4-5-9a47 47 0 0 0-42-12c-21 6-33 19-38 41v22l1 3 3 7 2 4 8 11c3 4 13 10 18 11 9 3 9 3 19 3 7 0 10-1 12-2Zm94-2c17 0 20-1 22-2 2-2 2-2 1-3-2-2-4-2-17-2-16 0-29-1-31-3l-1-15c-1-18-2-17 26-19 14 0 17-1 19-2 2-2 0-5-4-6l-14-1c-13 0-25-1-26-3l-1-14c0-11 0-13 2-15 1-2 3-2 24-2 22 0 23 0 24-2v-7l-63-1c-2 1-2 1-2 43 0 51 1 54 3 54h38Zm-239-7 2-14c0-9 1-10 3-12 3-3 4-3 19-3l18-1 5-2c5-2 11-9 14-15l2-12c0-12-7-22-18-29-5-2-6-2-29-3l-25 1-1 25 2 67c1 2 5 4 6 3l2-5Z"/><path fill="#292828" d="M1067 435c-5-1-5-3-4-21 1-19 0-18 20-18 15 1 16 1 19 3 7 5 8 7 8 19 0 11-1 12-7 16-4 2-5 2-18 2l-18-1Zm26-13c4-1 4-6 0-10-3-3-3-3-10-3s-7 0-7 6 0 7 2 7h15ZM774 498l-6-2c-8-1-14-5-21-12-9-8-11-13-14-27l-1-6-5 2-15 1c-11 0-11 0-12 16 0 10-1 17-2 19-3 5-8 7-19 7-10 0-10 0-14-4s-4-4-4-57l1-56c0-2 2-4 4-5 4-2 4-2 39-2l37 1 6 6c2 3 2 5 2 10l-1 10c-2 3-7 8-10 9h-20c-17 1-17 1-17 4 0 4 0 4 13 4l15 1 4 4c3 3 3 3 5-1l3-4c1-3 11-12 15-14 7-3 16-5 25-6 17-1 28 4 40 17 8 8 8 8 8 1 0-6 0-7 4-11 3-3 3-3 18-4l21-1c6-2 14-2 17 0 4 3 8 14 7 21-1 5-2 7-6 11-3 3-8 6-11 6s-8 3-9 5-2 9-2 24c-1 24-1 26-9 30-4 2-7 3-12 3-6 0-7 0-12-3-7-5-9-8-8-16 1-5 0-7-2-3l-7 8c-6 6-14 10-21 12l-24 2Zm21-16c8-3 15-9 20-16 10-15 8-32-5-45-8-7-17-11-26-11-8 0-17 3-23 8-25 20-17 57 14 66 6 1 13 1 20-2Zm59-1c1-1 2-7 2-23 1-22 1-23 3-27l6-5 4-2 7-2c5 0 6-2 6-7 0-4-1-4-3-4l-8 3c-7 4-13 4-15 1-2-2-3-3-6-3-7 0-7 0-7 36l1 34c3 2 9 1 10-1Zm-168 0v-16l1-18c1-4 6-6 20-6 15 0 17-1 17-6l-1-5-16-1-18-1-1-14 1-14c1-2 5-2 21-2 19 0 21-1 23-2 2-2 3-3 3-6l-1-5h-60c-1 1-2 90-1 94 0 3 1 3 6 3l6-1Z"/><path fill="#292828" d="M772 472c-10-4-13-11-13-25 0-12 1-15 7-20 6-6 8-7 19-7 11 1 15 3 20 11 2 5 3 6 3 15 0 8-1 10-3 15-4 10-10 13-22 13l-11-2Zm14-12c7-3 10-14 7-19-6-10-14-10-19-1-4 7-2 15 4 19 4 2 4 2 8 1ZM1871 352c-11-1-19-4-29-9-5-2-5-2-8 0-2 1-5 2-37 2s-36-1-38-2c-6-4-6 5-6-137a2066 2066 0 0 0-2-168l1-16c2-8 2-9 5-12l8-4 36-1c37 0 37 0 41 8a1830 1830 0 0 0 0 99c1 1 2 0 7-1 9-3 17-4 34-4a102 102 0 0 1 79 30 121 121 0 0 1 33 94 114 114 0 0 1-46 103l-1 1-11 6c-15 7-15 7-21 8l-8 2c-3 1-30 2-37 1Zm28-13 12-3 7-2 11-5 7-3s6-4 11-10c16-15 26-32 32-51 2-9 2-11 2-33 1-23 0-26-3-38a103 103 0 0 0-95-75c-12 0-27 4-36 9-4 2-7 4-11 4-5 0-5 0-6-2l-1-56c0-54 0-54-2-56h-30c-26 1-27 1-29 3-3 2-3 2-2 116a35898 35898 0 0 0 3 194 388 388 0 0 0 57 0l1-4c1-3 1-3 7-3 5 0 7 0 9 2a77 77 0 0 0 56 13Z"/><path fill="#292828" d="M1863 291c-15-3-28-15-34-31-2-6-2-8-2-31 0-24 0-26 2-32 6-19 20-29 41-31 11 0 19 1 26 5 14 7 21 15 24 25 2 7 3 9 3 32 0 25-1 31-6 41-3 6-12 16-16 17-11 5-27 7-38 5Zm22-14 15-11 1-2c1-1 5-9 6-14a114 114 0 0 0-3-51c0-3-10-12-17-16-12-5-23-4-34 5-5 3-8 8-11 15-2 5-2 7-2 26s0 20 2 25c6 11 10 16 20 22l12 2 11-1ZM1585 352c0-1-5-2-11-2a71 71 0 0 1-25-8c-4 0-26-19-30-26l-4-7c-3-5-6-14-7-21l-2-83c0-77 0-77 2-81 4-7 7-7 31-8a729 729 0 0 0 40 0c7 2 10 5 12 10l1 69c0 73-1 69 7 77 6 6 13 9 19 7 15-5 23-13 27-28v-63c-1-77-4-72 46-72l33 1 7 4c3 3 3 3 3 109s0 106-4 110c-3 2-6 4-9 4h-60l-8-4c-3-4-3-4-6-2a121 121 0 0 1-62 14Zm24-15a272 272 0 0 0 26-9l17-11 6-1c6 0 6 0 6 7l2 8h52c2-1 2-6 2-99l-1-100c-1-2-1-2-27-3-26 0-28 0-30 2s-2 2-2 64 0 63-3 69c-5 13-15 23-27 27-8 2-23 2-30 0-7-3-15-10-19-19-3-6-3-6-4-74 0-59-1-68-2-69l-26-1-26 2-1 75c0 81-1 80 6 94 10 21 26 33 54 38h27ZM138 349c-10-1-16-3-28-6l-22-9c-14-7-32-21-43-34-5-5-15-21-19-28A241 241 0 0 1 6 170l2-15 4-25a205 205 0 0 1 18-43l3-6 2-3 3-4a163 163 0 0 1 65-51 171 171 0 0 1 28-8l12-2a266 266 0 0 1 63 2l20 5a264 264 0 0 1 38 20l9 6 3 2c1 0 11 10 14 15l5 6c5 6 7 8 13 22 6 11 7 15 8 22 0 3 0 4-3 7-2 2-4 5-6 5a233 233 0 0 1-53 14l-11 1c-6 0-7 0-10-3s-6-6-9-12a63 63 0 0 0-67-31c-8 1-22 8-29 13-5 3-14 13-14 14l-3 5a86 86 0 0 0-13 55l1 24 3 10c2 10 10 24 16 31 8 8 14 12 30 19 6 2 31 3 40 1 16-5 32-16 40-29l2-5-32-1c-34 0-38 0-42-5-2-1-2-3-2-32 0-36 0-37 7-40 4-2 8-2 76-2 78 0 75 0 78 6l1 46c1 46 0 48-4 62a100 100 0 0 1-20 34l-8 9-17 14-15 9c-9 5-28 11-44 15-13 3-53 4-70 2Zm55-13a81 81 0 0 0 17-3l19-7 5-2a109 109 0 0 0 42-29c12-13 21-28 25-43 2-7 2-10 3-45v-40c-1-2-1-2-67-2l-68 1c-2 1-2 4-2 26l1 25 40 1c39 1 39 1 39 6 0 8-2 14-7 22a73 73 0 0 1-46 32c-12 3-38 3-49 0-31-8-50-29-58-64-5-20-5-50 0-68s12-32 24-44c10-10 19-15 29-17l11-3c5-3 28-3 40 0 21 5 36 16 47 36l5 9 6-1 12-2 9-2 12-4 15-4c5-2 5-2-1-15-16-33-51-60-88-69A147 147 0 0 0 22 151a174 174 0 0 0 30 133c26 35 68 55 116 54l25-2ZM1053 348c-20-4-37-10-48-17a108 108 0 0 1-36-38l-8-21-2-7a192 192 0 0 1-2-69 122 122 0 0 1 19-46 193 193 0 0 1 27-25 122 122 0 0 1 76-21l11 2 19 3c11 3 25 10 34 16 8 6 21 19 25 26l13 29 3 9 2 9 1 5 1 24c0 23 0 23-3 26-2 3-2 3-72 3l-69 1c0 2 7 10 11 13 8 6 13 7 24 8 10 0 10 0 18-4l13-9c7-6 10-7 16-7s10 2 26 11c10 6 15 10 16 15l4 16c0 5-2 15-4 18-4 5-23 17-35 21l-4 2c-5 2-20 6-29 7h-47Zm42-12 5-1 7-1 6-2 5-1 8-4c13-5 29-16 31-21s0-15-4-18c-3-3-26-16-28-16l-4 4c-5 4-12 9-19 12-8 3-29 4-38 2-13-3-26-12-32-24-2-5-3-7-3-13l1-8 71-1c65 0 70 0 72-2l1-17c-1-22-4-37-12-53a98 98 0 0 0-81-54c-23-2-53 6-71 20-8 6-19 17-24 25-24 36-23 93 1 129 16 23 40 38 71 43 11 2 36 3 37 1Z"/><path fill="#292828" d="M1030 198c0-7 0-8 4-15 4-8 13-17 20-19 10-4 12-4 21-4 15 0 26 5 35 15 7 8 11 21 9 28-1 3-1 3-45 3s-44 0-44-8Zm72-6c0-4-9-13-16-16-5-3-18-3-24 0s-16 13-16 16l28 1 28-1ZM395 347l-5-1c-6 0-17-3-26-7-19-9-33-25-37-42-6-19-5-42 1-58 3-9 6-13 13-20 11-12 21-18 37-23 5-1 8-3 7-3h-15c-14 1-15 1-19-1-6-3-6-3-9-12l-4-12c-2-6-3-12-2-18 0-5 1-6 11-16s11-11 25-18c22-11 37-14 71-14 27 0 40 2 56 7 8 3 19 8 23 12 5 3 14 13 17 17 4 5 12 21 14 29 2 7 2 8 3 85l-1 80-5 7c-3 4-3 4-32 4h-34c-5-1-11-6-11-10 0-3-2-3-4-2-3 3-20 11-30 13-11 3-41 5-44 3Zm31-14 13-3 7-2 4-2 2-2 18-11c4-3 6-3 10-3 5 1 5 1 5 9l2 10 28 1c26 0 26 0 27-5a1828 1828 0 0 0-5-160c-3-9-11-20-19-27a95 95 0 0 0-54-22c-43-6-83 5-108 30l-7 8 4 14c4 12 4 12 24 12s20 0 23-4c4-6 10-11 13-12l4-1c5-3 7-3 22-3 14 0 16 0 21 2 14 5 22 16 24 30 1 10 3 9-37 10-42 1-53 3-71 10-11 5-15 8-23 16a62 62 0 0 0-10 71c13 26 49 41 83 34Zm19-145 22-1c0-2-6-8-10-10-10-5-19-6-28-3-6 1-15 7-15 8l-3 4-2 4 7-1 29-1Z"/><path fill="#292828" d="M411 290c-6-2-11-6-13-10s-3-20-1-25c3-7 14-15 24-16l7-1c2-2 49-2 52-1s3 1 3 8c0 20-13 37-33 44-9 3-31 4-39 1Zm25-11c9-3 20-9 24-14l8-14-20-1c-23 1-27 2-35 9-7 8-4 15 7 19 7 2 10 2 16 1ZM1218 344c-5 0-8-2-10-5s-2-3-3-156c0-153 0-153 4-157s4-4 10-4a2161 2161 0 0 0 65 0c4 1 7 5 9 11l1 52c0 29 1 47 2 47h95c2 0 2-5 2-50s0-50 2-53c3-7 4-7 42-7 39 0 40 0 43 7 2 4 2 8 2 153l-1 152c-2 5-6 9-11 10h-63c-6 0-7-1-12-6l-1-62c0-61 0-61-50-61-49 0-49 0-50 58 0 59 0 59-3 63-4 7-5 8-40 8h-33Zm60-15c2-2 2-3 2-63l1-62c1-2 3-2 63-2 63 0 63 0 63 2l1 64c0 58 0 62 2 63a254 254 0 0 0 56-1c2-1 2-1 2-147 0-145 0-145-2-147s-4-2-29-2l-28 2-2 55c0 50 0 52-2 54s-121 1-123-1c-1-1-2-13-2-55 0-54 0-54-28-55l-31 1c-3 1-3 1-3 147 0 145 0 146 2 148s3 2 29 2c27 0 27 0 29-3ZM587 342l-4-3c-2-3-2-3-3-109l1-109c4-11 3-11 37-11 30 0 33 0 38 5h3c6-3 9-5 19-8 11-3 11-3 32-3l26 1a83 83 0 0 1 38 20c0 2 2 1 7-2l5-4c4-4 24-12 36-14h43c10 2 22 6 29 9l16 10c3 3 13 12 16 17a59 59 0 0 1 10 17l3 11c2 7 2 11 3 84 0 80 0 81-4 87-3 3-3 3-34 3h-34c-6-1-9-4-11-10l-1-67c0-63 0-63-2-68-3-6-7-12-9-12l-4-2-9-3c-6 0-7 0-12 3-7 3-11 6-14 12-2 5-2 7-2 71-1 71-1 68-7 73l-6 3h-36c-31 0-31 0-34-4-3-3-3-3-4-71-1-72 0-70-6-78-6-9-19-13-30-8-7 4-11 7-13 12-3 6-3 6-3 72s0 66-3 69c-5 8-4 8-41 8l-36-1Zm65-14v-66l2-70c6-18 20-26 43-25 16 1 26 7 32 20 3 6 3 6 3 74 1 69 1 69 29 69 26 0 29 0 30-2l1-65c0-67 0-68 5-78 2-4 8-10 13-12 10-5 26-7 38-3 5 2 7 3 12 8l8 10c4 8 4 25 4 85v54c0 3 0 3 28 3 24 0 28 0 28-2 2-2 1-137 0-144l-4-15c-11-32-46-53-85-52-21 1-37 8-52 21-6 5-7 5-11 5-5 0-6 0-9-4a80 80 0 0 0-90-16l-14 9c-6 4-7 5-11 5s-5 0-6-8c0-4-1-4-5-5-7-2-45-1-46 1a5260 5260 0 0 0-1 203c0 2 0 2 29 2 28 0 28 0 29-2Z"/><path fill="#F6310F" d="M968 489c-18-6-27-17-29-38l-1-39c0-28 0-29 2-30h17v38c1 41 0 40 8 46 5 4 9 6 17 6 10 0 15-2 20-10 2-4 2-4 3-39l1-38c1-3 6-5 12-3 5 1 5 1 4 35 0 36 0 41-5 51-2 6-12 17-15 17l-4 1-4 2c-3 2-21 2-26 1ZM1183 489l-12-2a48 48 0 0 1-26-22l-2-5-3-7-1-3v-28c3-11 7-21 13-26 10-11 23-16 38-16s27 5 37 15c5 5 6 7 6 9l-2 3-5 3c-4 3-9 3-13-2-6-5-11-8-18-9-8 0-18 2-21 5l-5 3c-3 1-7 7-9 14-2 5-2 7-2 15 1 11 3 18 9 24 7 8 13 10 24 10 10 0 16-2 25-10 4-4 6-5 8-4l11 5c0 5-18 24-22 24l-4 2-10 2h-16ZM1258 485a1183 1183 0 0 1-3-59c0-43 0-43 2-44 3-1 68 0 69 1 2 1 2 10 0 13-1 2-1 2-24 2-28 0-26-1-26 14v11c1 2 7 2 25 3 20 1 21 1 21 8 0 6-1 7-20 7-27 2-26 1-26 16l1 12c2 2 15 3 31 3 17 0 18 0 18 6 0 7-1 7-35 7h-33ZM1052 483l-3-3a1143 1143 0 0 1-1-97c1-2 4-2 28-2 26 1 27 1 32 3 7 4 12 9 16 18 3 7 3 21 0 28a33 33 0 0 1-19 18l-18 1c-15 0-16 0-19 3-2 2-3 3-3 12-2 18-2 20-7 20l-6-1Zm48-52c6-4 7-5 7-13s-2-11-8-16c-3-2-4-2-16-3-16 0-16 0-17 16v14c1 3 4 4 19 4 10 0 11 0 15-2Z"/><path fill="#F97A01" d="M1873 342c-11-1-27-7-33-13l-6-2c-2 0-3 0-4 3l-1 4-30 1-33-1c-3-1-2 23-3-188-1-126-1-126 1-128l5-2a491 491 0 0 1 61-1c2 2 2 2 2 56l1 56c1 3 3 3 11-2 17-10 47-12 71-4 31 10 57 38 66 70 4 16 6 37 4 61-3 24-15 48-35 67-5 6-11 10-11 10l-7 3-11 5-7 2a126 126 0 0 1-41 3Zm17-56c8-2 11-4 16-10 11-12 13-20 14-48 0-19-1-22-3-29l-5-11c-4-5-12-11-20-14-20-11-47-2-57 18-5 10-6 18-6 40 1 17 1 20 3 25 10 25 33 37 58 29ZM1518 203c0-27 0-28 2-28s2 1 2 28 0 28-2 28-2-1-2-28ZM1664 334l-2-2v-3l2-4c3-3 4-4 7-4l4 1c1 3 17-1 18-4l1-2 1-1 1-2c2 0 4-4 5-12l1-7 1-2 1-2v-5l-1-4-2-4-2-2-2-2c-2 0-3-1-3-3-1-2-1-3-4-3-5-1-11 0-11 2 0 3-3 4-7 4-7 0-7 0-7 4l-1 6c-1 2-2 2-9 2-8 0-8 0-9-5l1-5 5-9c6-12 6-18 6-83 0-54 0-54 2-55 2-2 5-2 32-2 29 1 29 1 30 3a4180 4180 0 0 1 0 205h-58Z"/><path fill="#F97A01" d="M1579 340c-21-4-37-12-46-25-5-7-11-20-13-27l-1-83 1-78 29-2 29 1c1 1 2 10 2 69 1 68 1 68 4 74 4 9 12 16 19 19 7 2 17 2 24 0 12-4 22-14 27-27 3-6 3-7 3-69 0-63 0-63 2-63a2299 2299 0 0 1 1 123c0 5-1 9-5 16l-5 10-1 2c1 2 2 2 6 2l5-1v-1l2-5 1-5v-1l-1-1c0-2 3-2 5-1h1l1 1c1 2 4 2 6 0v-1l-1-1c0-1 1-2 3-2l7-1h6l4 1c2 0 4 3 3 5 0 1 5 2 7 1 2 0 1 1-1 3-1 1-1 1 1 1 1-1 2 0 2 1l1 7 1 2 1 2v1l-1 2 1 1v2c1 1 1 1-1 1s-2 0 0 2c1 1 1 2-2 2-2 1-2 1 0 1s2 0 0 1l-1 1v4l-1 2v3l-1 3-1 2-3 2v1l-1 2c-2 0-2 1-1 2s0 1-2 2l-4 1-4 1-2 2h-5c-1 2-4 2-4 0h-1l-2 1-2-1c2-3-1-3-4 1s-3 4 0 4h12l4 1c2-1 4 0 5 1s0 1-12 1l-13-1-2-8c0-7 0-7-3-7l-3 1a128 128 0 0 1-27 16l-7 2-9 2h-33ZM1722 316ZM1217 333c-2-2-2-3-2-151 0-149 0-149 3-150l34-1c31 1 31 1 31 55 0 42 1 54 2 55 2 2 115 3 117 1 2-1 2-5 2-54l2-55 31-2c28 0 30 0 32 2 3 2 3 2 2 150 0 149 0 149-2 150-2 2-4 2-31 2l-31-1c-2-1-2-5-2-63l-1-64c0-2 0-2-60-2-57 0-59 0-60 2l-1 62c0 60 0 61-2 63-2 3-2 3-32 3-29 0-30 0-32-2Z"/><path fill="#fff" d="M772 487c-12-4-21-11-26-22-2-4-2-7-3-15 0-16 4-26 15-35 7-6 15-8 26-8 9 0 10 0 16 3 9 4 17 12 21 18 5 11 5 26-1 37-3 6-11 15-17 18-9 5-21 6-31 4Zm20-18c8-4 13-13 12-23 0-8-3-16-9-20-5-3-15-4-19-2-5 3-11 9-13 13-1 4-1 16 1 21 4 11 18 16 28 11ZM841 485c-2-1-2-72 1-74 1-2 3-2 8-2 6 0 7 0 9 3s3 3 9-1 15-6 16-4c2 2 1 16 0 17l-6 1-6 2-4 2-6 5c-2 4-2 5-3 27 0 16-1 22-2 23-1 2-3 2-8 2l-8-1ZM671 482V382h67l1 8c0 6 0 7-3 9-2 1-4 2-23 2-16 0-20 0-21 2l-1 11c0 12-1 12 19 12l16 1 1 8c0 7 0 7-3 8l-14 1c-15 0-20 2-20 6l-1 18v16l-9 1c-9 0-9 0-9-3ZM141 339c-25-3-43-10-62-23-28-19-46-47-56-87-6-20-6-26-6-48 0-17 0-22 2-33A147 147 0 0 1 181 22c14 1 16 1 30 5 34 8 67 31 84 61 4 6 10 22 10 24 0 3-5 6-20 9l-12 4c-5 2-30 6-32 5l-6-9a71 71 0 0 0-66-38c-9 0-12 0-15 2l-11 3c-10 2-19 7-29 17-9 9-13 15-19 28-13 32-11 77 6 107 9 18 26 30 47 35 11 3 31 3 43 0 9-2 20-7 27-12 14-9 27-29 26-39 0-2 0-2-39-3l-40-1a292 292 0 0 1 1-57l71-1c69 0 69 0 70 2a880 880 0 0 1-3 91c-4 15-13 30-25 43a114 114 0 0 1-47 31l-19 7-6 1c-6 3-51 5-66 2ZM1055 338c-37-6-63-25-78-56-15-29-16-75-2-107 8-19 24-37 42-47s44-15 65-13c28 3 49 12 65 29 12 11 18 21 23 39 5 13 6 21 7 42l-1 20c-2 2-7 2-72 2l-71 1c-4 4 2 18 11 27 10 10 22 14 39 13 14-1 23-5 35-15 7-6 7-6 23 3s18 10 19 17v17c-3 4-19 15-31 20l-8 4-5 1-6 2-7 1-5 1c-2 2-32 1-43-1Zm61-137c1-5-3-16-9-23a42 42 0 0 0-60-5c-8 7-14 18-14 25 0 5 0 5 41 5s41 0 42-2ZM395 337c-33-5-56-24-60-51-5-25 1-47 15-61 8-8 12-11 23-16 18-7 29-9 71-10 39-1 38 0 36-8-3-15-14-25-30-28a55 55 0 0 0-34 4c-3 1-9 6-13 12-3 4-3 4-26 4s-23 0-28-14c-2-8-4-15-3-17 0-3 13-15 23-21 19-13 44-20 74-20 56 0 91 21 101 63l2 78-1 76c-1 5-1 5-31 5-35 0-32 1-32-12 0-10 0-10-17 0l-10 6-2 2-4 2-7 2c-13 4-33 6-47 4Zm52-51a48 48 0 0 0 33-41c0-3 0-4-3-5a267 267 0 0 0-53 2c-7 1-14 5-19 10s-6 8-6 15c0 11 4 16 15 20 8 3 24 2 33-1ZM591 331a5565 5565 0 0 1 1-209c1-2 45-3 52-1 4 1 5 1 5 5 2 10 2 10 11 3 8-7 17-11 28-14 9-3 31-3 41-1 15 3 31 12 40 21 2 3 5 5 7 5l8-5c16-14 31-20 55-21 22 0 39 4 56 13 19 12 32 31 36 54 1 7 2 148 0 150 0 2-4 2-31 2-31 0-31 0-31-3l-1-58v-65c-1-13-3-18-11-26-5-5-7-6-12-8-18-5-38 1-45 15-5 10-5 11-5 78l-1 65c-1 2-4 2-33 2-31 0-31 0-32-69 0-68 0-68-3-74-4-8-9-13-16-16-17-8-39-2-48 12-6 9-6 9-7 79v66c-1 2-1 2-32 2-32 0-32 0-32-2Z"/></svg>