<?xml version="1.0" encoding="utf-8"?>
<!-- Generator: Adobe Illustrator 28.0.0, SVG Export Plug-In . SVG Version: 6.00 Build 0)  -->
<svg version="1.1" id="Vrstva_1" xmlns="http://www.w3.org/2000/svg" xmlns:xlink="http://www.w3.org/1999/xlink" x="0px" y="0px"
	 viewBox="0 0 100 100" style="enable-background:new 0 0 100 100;" xml:space="preserve">
<style type="text/css">
	.st0{fill:#DB1E0B;}
</style>
<path class="st0" d="M50.1,0.3c-11.9,0-22.9,4.2-31.5,11.2v23.7c0,6.1,4.4,9.8,10.5,9.8c5.6,0,10.7-2.9,10.7-10.5V10.8h10.6v24.1
	c0,14-9.6,18.9-21.2,18.9C16.9,53.7,8,48,8,34.9V23.4c-4.9,7.7-7.8,16.9-7.8,26.7c0,27.5,22.3,49.8,49.8,49.8
	c27.5,0,49.8-22.3,49.8-49.8C100,22.6,77.6,0.3,50.1,0.3 M74.5,85.9c-3.3,0-6-2.7-6-6c0-3.3,2.7-6,6-6c3.3,0,6,2.7,6,6
	C80.5,83.3,77.8,85.9,74.5,85.9 M74.5,65.6c-3.3,0-6-2.7-6-6c0-3.3,2.7-6,6-6c3.3,0,6,2.7,6,6C80.5,62.9,77.8,65.6,74.5,65.6"/>
</svg>
